<?xml version="1.0" encoding="UTF-8" standalone="no"?>
<!-- Created with Inkscape (http://www.inkscape.org/) -->

<svg
   xmlns:dc="http://purl.org/dc/elements/1.1/"
   xmlns:cc="http://creativecommons.org/ns#"
   xmlns:rdf="http://www.w3.org/1999/02/22-rdf-syntax-ns#"
   xmlns:svg="http://www.w3.org/2000/svg"
   xmlns="http://www.w3.org/2000/svg"
   xmlns:sodipodi="http://sodipodi.sourceforge.net/DTD/sodipodi-0.dtd"
   xmlns:inkscape="http://www.inkscape.org/namespaces/inkscape"
   version="1.0"
   width="708.66101"
   height="708.66101"
   viewBox="0 0 708.661 708.661"
   id="Layer_1"
   xml:space="preserve"
   style="overflow:visible"
   inkscape:version="0.48.1 "
   sodipodi:docname="Divisions_of_North_Korea_ko2.svg"><metadata
   id="metadata3129"><rdf:RDF><cc:Work
       rdf:about=""><dc:format>image/svg+xml</dc:format><dc:type
         rdf:resource="http://purl.org/dc/dcmitype/StillImage" /><dc:title></dc:title></cc:Work></rdf:RDF></metadata><sodipodi:namedview
   pagecolor="#ffffff"
   bordercolor="#666666"
   borderopacity="1"
   objecttolerance="10"
   gridtolerance="10"
   guidetolerance="10"
   inkscape:pageopacity="0"
   inkscape:pageshadow="2"
   inkscape:window-width="1280"
   inkscape:window-height="972"
   id="namedview3127"
   showgrid="false"
   inkscape:zoom="1.0417103"
   inkscape:cx="345.42774"
   inkscape:cy="384.55109"
   inkscape:window-x="-8"
   inkscape:window-y="-8"
   inkscape:window-maximized="1"
   inkscape:current-layer="Layer_1" /><defs
   id="defs2873" />
<path
   d="m 70.372,361.735 c -0.444,-1.249 -1.658,-2.488 -2.694,-3.315 -1.295,3.403 -5.603,6.373 -9.673,5.035 -0.843,3.012 -4.491,11.213 0.364,11.361 0.064,-0.109 0.099,1.599 -0.013,1.455 -1.828,0.812 -2.379,1.67 -1.975,3.791 6.347,1.675 15.445,4.714 18.756,-4.238 2.327,-6.292 -3.395,-10.681 -5.308,-15.173"
   id="path2817"
   style="fill:#ffc20e;fill-rule:evenodd;stroke:#bcbec0;stroke-width:2;stroke-linecap:round;stroke-linejoin:round" />
<path
   d="m 442.048,561.118 c 0.521,-1.667 1.591,-8.155 0.567,-9.779 -0.886,-1.404 -2.723,-0.315 -3.274,-1.033 -0.756,-0.979 -1.528,-2.985 -2.17,-3.816 -2.486,-3.223 -0.557,-4.648 -4.469,-1.34 -1.639,1.387 -3.451,7.822 -4.954,2.492 -6.09,0.384 -7.326,14.618 -3.604,18.77 6.119,6.823 14.608,-0.975 18.444,-5.293"
   id="path2819"
   style="fill:#ffc20e;fill-rule:evenodd;stroke:#bcbec0;stroke-width:2;stroke-linecap:round;stroke-linejoin:round" />
<path
   d="m 281.12826,641.42083 c 0,7.01887 -1.13573,6.53158 -3.12383,13.20306 -0.76432,2.56392 -0.75579,5.91379 -3.56364,7.73734 -2.75136,1.78618 -5.59653,0.14041 -7.68163,2.9031 -1.96891,-4.06653 -7.96838,-5.31475 -12.10128,-7.85223 -3.93355,-2.4153 -10.90309,-5.88916 -12.16949,-9.55998 -2.99867,-8.6929 10.22505,-9.26075 17.00803,-10.59286 13.63072,0.80722 13.02836,-1.03215 13.55103,-0.39964 2.39098,2.89346 6.95708,4.58584 8.16459,5.0414"
   id="path2821"
   style="fill:#ffc20e;fill-rule:evenodd;stroke:#bcbec0;stroke-width:1.97175884;stroke-linecap:round;stroke-linejoin:round"
   inkscape:connector-curvature="0"
   sodipodi:nodetypes="cccccccsc" />
<path
   d="m 168.841,295.171 c -0.103,0.05 -0.194,0.111 -0.291,0.167 l 1.104,1.472 c -0.221,-0.514 -0.504,-1.068 -0.813,-1.639 z"
   id="path2823"
   style="fill:#ffffff;fill-rule:evenodd;stroke:#bcbec0;stroke-width:2;stroke-linecap:round;stroke-linejoin:round" />
<path
   d="m 181.588,338.289 c -8.16,7.702 3.604,9.129 8.427,12.039 2.043,1.232 4.439,4.3 6.519,5.1 4.111,1.578 3.671,0.532 7.785,0.64 11.292,0.294 6.781,3.647 13.772,9.781 3.66,3.211 11.57,5.562 16.513,8.224 4.149,2.232 12.108,8.272 16.507,8.889 4.474,0.626 5.296,-2.171 8.042,-2.625 2.128,-0.351 7.889,1.335 9.584,0.318 3.65,-2.19 0.593,-5.251 2.67,-7.47 2.766,-2.952 5.654,-1.462 8.121,-3.748 2.775,-2.569 0.269,-4.741 5.017,-7.472 2.887,-1.66 7.135,-1.928 9.569,-3.341 2.444,-1.42 3.979,-4.145 7.492,-5.246 -0.573,-7.461 1.158,-16.816 5.797,-22.754 3.232,-4.137 3.995,-5.554 6.158,-10.111 2.029,-4.278 0.038,-8.043 7.49,-6.9 -2.202,-11.439 12.783,-6.772 19.125,-10.879 4.073,-2.638 4.079,-6.524 6.421,-10.132 1.972,-3.039 6.071,-6.609 7.548,-10.205 2.073,-5.044 -0.323,-6.397 0.051,-11.849 0.479,-6.961 3.127,-4.515 5.71,-9.501 3.898,-7.524 1.546,-14.97 -3.995,-21.051 -3.404,1.864 -6.374,7.622 -10.227,8.623 1.08,-0.281 -11.587,-1.366 -10.792,-1.078 -7.479,-2.711 -8.09,-15.654 -10.33,-21.831 -3.044,-8.399 -7.51,-16.915 -12.038,-23.496 -0.999,-1.451 -3.788,-3.403 -3.851,-5.479 -0.152,-4.948 1.325,-2.211 3.192,-4.91 0.789,-1.14 3.772,-2.106 5.098,-4.233 0.758,-1.215 0.08,-5.955 0.131,-7.448 0.619,-0.134 1.223,-0.318 1.807,-0.542 -0.079,-0.223 -0.166,-0.439 -0.225,-0.681 2.741,-0.185 2.692,-3.159 2.508,-6.271 -5.669,-1.019 -7.944,-5.432 -11.286,-8.778 -5.432,3.765 -7.493,10.9 -13.795,13.795 -2.944,-0.4 -2.807,-3.882 -5.016,-5.017 -1.703,7.979 -7.735,9.175 -12.541,11.287 1.586,7.42 -1.401,14.339 -7.524,20.065 2.612,2.404 5.225,4.807 6.271,8.778 -1.09,1.835 -1.877,3.975 -5.017,3.762 -2.391,-0.534 -2.269,-3.583 -6.27,-2.508 -8.802,13.353 -15.454,28.855 -31.351,35.113 -0.813,10.651 -8.606,20.058 -13.794,27.589 -7.327,-0.982 -14.463,-1.72 -21.319,2.509 -0.702,-1.806 -1.956,-3.06 -3.762,-3.763 -0.395,2.95 -5.944,0.745 -5.017,5.017 -3.507,1.612 3.951,2.593 2.508,6.27 -3.063,2.854 -9.478,6.794 -12.541,2.508 0.335,6.263 -7.896,3.959 -11.888,5.896 0.309,0.571 0.592,1.125 0.813,1.639 l -1.104,-1.472 c -0.121,0.069 -0.251,0.128 -0.362,0.207 -0.023,0.141 -0.034,0.267 -0.043,0.394 3.066,6.46 8.853,11.99 10.019,19.451 1.142,7.312 -3.219,17.805 3.423,22.897 z"
   id="path2825"
   style="fill:#fff3e3;fill-rule:evenodd;stroke:#bcbec0;stroke-width:2;stroke-linecap:round;stroke-linejoin:round" />
<g
   id="g2827">
	<path
   d="m 167.925,434.781 c 2.002,-0.005 2.473,-0.58 2.522,-1.652 -0.26,0.147 -0.516,0.298 -0.76,0.457 -0.582,0.385 -1.175,0.798 -1.762,1.195 z"
   id="path2829"
   style="fill:#ffffff;stroke:#bcbec0;stroke-width:2;stroke-linecap:round;stroke-linejoin:round" />
	
		<path
   d="m 166.935,434.746 c -0.141,0.346 -0.225,0.636 -0.28,0.896 0.425,-0.292 0.847,-0.576 1.27,-0.861 -0.296,10e-4 -0.624,-0.01 -0.99,-0.035 z"
   id="path2831"
   style="fill:#ffffff;fill-rule:evenodd;stroke:#bcbec0;stroke-width:2;stroke-linecap:round;stroke-linejoin:round" />
	
		<path
   d="m 218.09,365.848 c -6.991,-6.134 -2.48,-9.487 -13.772,-9.781 -4.113,-0.107 -3.674,0.938 -7.785,-0.64 -2.08,-0.799 -4.475,-3.867 -6.519,-5.1 -4.822,-2.91 -16.586,-4.337 -8.427,-12.039 -6.642,-5.091 -2.281,-15.585 -3.424,-22.899 -1.167,-7.461 -6.953,-12.991 -10.019,-19.451 -0.211,2.602 2.286,2.497 1.298,5.876 -4.73,-4.749 -2.645,3.721 -5.017,5.017 -7.564,-4.428 -12.856,1.197 -21.319,2.508 1.115,11.024 -10.262,2.087 -12.54,10.033 1.422,2.653 0.484,3.642 2.508,7.524 -8.553,-1.969 -13.156,-1.894 -21.319,-2.508 -10.982,15.352 -33.966,18.704 -41.384,37.623 4.992,10.299 -4.058,16.63 -11.286,18.811 1.856,0.232 1.149,3.03 1.254,5.017 -5.604,-0.587 -6.905,3.127 -8.778,6.271 9.695,2.179 4.045,11.929 12.541,15.047 0.703,-3.038 1.75,-6.677 6.27,-8.777 3.364,2.069 5.551,5.316 8.778,7.523 -5.593,0.837 -2.364,3.225 -3.762,8.778 7.367,1.514 5.95,7.554 5.016,15.049 5.34,-0.931 10.016,-2.524 13.795,-5.017 0.943,-7.654 -6.29,-14.674 2.508,-16.303 -0.728,4.071 0.854,5.834 1.254,8.778 5.489,1.618 10.096,4.117 11.286,10.033 13.267,-2.034 20.716,11.026 31.352,3.763 3.802,25.302 19.519,0.091 30.097,-3.763 -0.739,2.615 -0.189,4.62 -0.25,5.907 4.646,-2.626 11.812,-3.223 16.719,-4.838 5.871,-1.933 8.443,-5.183 12.545,-9.373 2.475,-2.527 5.27,-3.928 7.625,-6.7 1.954,-2.299 4.04,-5.299 7.015,-5.898 3.015,-0.606 7.947,1.034 10.617,2.305 3.996,1.903 4.228,2.302 8.487,0.644 4.063,-1.581 6.647,-3.382 9.759,-6.484 2.112,-2.105 8.338,-4.646 8.873,-7.522 0.527,-2.837 -3.69,-3.882 -3.982,-6.835 -0.196,-1.983 1.457,-3.798 2.09,-5.658 -4.518,-1.206 -11.717,-6.611 -15.592,-8.696 -4.942,-2.663 -12.852,-5.014 -16.512,-8.225 z"
   id="path2833"
   style="fill:#fffde9;fill-rule:evenodd;stroke:#bcbec0;stroke-width:2;stroke-linecap:round;stroke-linejoin:round" />
</g>
<g
   id="g2835">
	
		<path
   d="m 170.61122,537.10404 c -2.402,-4.405 -2.01825,-1.73383 -2.58628,-8.58397 -0.0582,-3.6654 2.02983,-12.71639 3.44083,-16.46439 1.58,-4.193 1.56908,-4.01682 4.89608,-5.75382 2.83279,-2.39774 0.95012,-2.8066 3.77812,-2.9656 0.54085,-3.41074 -0.49116,-3.10364 -1.39662,-7.09742 1.03744,-5.26763 3.14425,-6.44952 2.71925,-9.76952 1.31865,-2.49574 2.12653,-6.11987 6.40133,-5.06687 5.267,3.235 -2.253,6.53034 8.855,6.20534 1.583,-0.047 1.58683,-3.12779 3.74583,-3.60479 1.664,-0.365 6.99449,4.89696 8.79749,4.92896 7.765,0.136 10.65275,-3.86896 15.88575,1.56904 4.42328,9.72821 6.99311,2.22136 13.33632,4.97467 4.40054,3.197 1.5129,6.93451 0.41127,9.84151 3.998,1.433 6.34936,0.0646 9.22501,3.29881 4.05931,4.56547 2.06155,7.19006 2.4884,10.69401 0.364,0.087 0.492,-0.02 0.384,-0.314 4.318,5.277 13.247,0.865 12.548,-6.712 2.534,-0.188 8.045,1.93 9.641,0.844 4.219,-2.87 1.269,-7.076 -1.064,-9.073 -2.76,-2.365 -8.588,0.788 -5.632,-5.387 1.883,-3.933 6.836,-3.482 10.474,-2.947 7.443,1.096 14.519,6.039 21.87,7.607 3.511,0.749 7.138,1.851 10.328,-0.293 1.674,-1.125 -0.244,-4.117 1.542,-5.521 1.281,-1.007 5.214,-0.745 6.786,-0.636 2.304,-5.326 0.091,-8.716 -4.05,-11.391 -1.597,-1.032 -4.934,-0.792 -6.152,-1.995 -1.79,-1.767 -0.63,-4.649 -2.116,-6.569 -1.485,-1.919 -9.287,-6.729 -11.397,-6.7 -4.462,0.062 -9,6.812 -10.85,0.774 -1.266,-4.135 3.725,-7.827 4.389,-11.521 1.066,-5.937 -2.347,-7.832 -4.193,-12.639 -2.448,-6.369 -0.361,-8.084 2.55,-13.583 1.931,-3.646 7.092,-8.721 6.536,-12.699 -13.876,-2.212 6.429,-18.187 13.132,-18.906 9.041,-0.97 6.142,7.181 12.276,7.218 6.751,0.041 6.341,-10.345 6.343,-14.968 0.004,-8.985 2.342,-6.271 6.84,-12.302 4.662,-6.252 -0.829,-6.666 -5.25,-10.835 -3.88,-3.658 -4.205,-8.308 -7.913,-11.915 -3.682,-3.582 -9.084,-4.84 -13.741,-5.603 -0.776,-0.127 -1.545,-0.245 -2.314,-0.365 0.011,0.165 0.016,0.334 0.028,0.497 -3.514,1.101 -5.048,3.826 -7.492,5.246 -2.434,1.413 -6.682,1.681 -9.569,3.341 -4.748,2.73 -2.242,4.902 -5.017,7.472 -2.467,2.286 -5.355,0.796 -8.121,3.748 -2.078,2.219 0.98,5.279 -2.67,7.47 -1.695,1.017 -7.457,-0.669 -9.584,-0.318 -2.746,0.454 -3.567,3.251 -8.042,2.625 -0.29,-0.04 -0.597,-0.108 -0.915,-0.192 -0.633,1.86 -2.286,3.675 -2.09,5.658 0.292,2.953 4.509,3.998 3.982,6.835 -0.534,2.876 -6.761,5.417 -8.873,7.522 -3.112,3.103 -5.696,4.903 -9.759,6.484 -4.26,1.658 -4.492,1.26 -8.487,-0.644 -2.67,-1.271 -7.602,-2.911 -10.617,-2.305 -2.976,0.6 -5.061,3.6 -7.015,5.898 -2.355,2.772 -5.15,4.173 -7.625,6.7 -4.103,4.19 -6.675,7.44 -12.545,9.373 -4.906,1.615 -12.073,2.212 -16.719,4.838 -0.049,1.072 -0.521,1.647 -2.522,1.652 -0.423,0.285 -0.845,0.569 -1.27,0.861 -0.715,3.435 5.667,-0.227 5.296,2.866 -11.083,3.759 -15.286,13.176 -15.049,18.81 5.296,-0.853 7.082,2.571 8.779,-1.254 -0.941,4.286 5.095,1.594 3.762,6.271 -3.408,0.772 -5.874,2.486 -7.524,5.016 3.113,1.484 7.869,1.328 6.27,7.524 -3.12,0.193 -3.882,-1.971 -6.27,-2.509 -1.235,3.782 -2.98,7.052 -7.524,7.525 3.802,15.315 -15.547,9.836 -5.017,20.063 -7.08,-1.646 -5.896,4.974 -11.286,5.017 -1.075,14.434 -6.38,18.431 -7.525,33.859 6.881,1.865 5.502,-4.53 10.033,-5.017 -1.922,6.103 3.639,4.722 3.762,8.779 -1.835,2.909 -3.974,-2.45 -3.762,2.508 0.8,3.309 15.034,-3.773 11.287,2.509 7.633,1.362 3.033,-9.509 8.778,-10.033 2.331,5.59 2.984,7.343 4.99,11.309 3.68,1.036 6.839,3.073 10.985,3.632 0.609,-2.354 -4.62578,-12.84096 -6.02778,-15.41096 z"
   id="path2837"
   style="opacity:1;fill:#f3f8e8;fill-rule:evenodd;stroke:#bcbec0;stroke-width:2;stroke-linecap:round;stroke-linejoin:round"
   inkscape:connector-curvature="0"
   sodipodi:nodetypes="ccccccccccccccscccccccccsccccccccccccccccccccsccccccccccccccccccccccccccccccccccccc" />
</g>
<g
   id="g2839">
	
		<path
   d="m 165.654,548.887 c 0.012,0.023 0.026,0.051 0.038,0.074 0.068,10e-4 0.137,0.002 0.205,0.003 -0.081,-0.024 -0.16,-0.054 -0.243,-0.077 z"
   id="path2841"
   style="fill:#ffffff;fill-rule:evenodd;stroke:#bcbec0;stroke-width:2;stroke-linecap:round;stroke-linejoin:round" />
	
		<path
   d="m 253.211,611.977 c -9.99,-0.546 -19.308,-5.979 -28.646,-0.128 -5.013,3.143 -9.15,8.118 -16.792,5.797 -7.715,-2.343 -3.222,-6.879 -5.886,-12.842 -3.031,-6.784 -10.251,-4.338 -14.843,-7.568 -4.307,-3.029 -4.801,-10.49 -5.946,-15.003 -2.021,-7.967 -0.788,-23.813 -6.632,-30.164 -3.049,-0.809 -5.66,-2.246 -8.567,-3.104 -0.068,-10e-4 -0.137,-0.002 -0.205,-0.003 0.365,0.722 0.769,1.506 1.242,2.412 -6.109,-3.504 -2.968,1.15 -3.762,2.508 -6.32,-0.887 -8.618,2.251 -12.541,3.762 0,-1.671 0,-3.344 0,-5.016 -5.255,-1.493 -2.238,5.285 -5.016,6.27 -3.537,-0.226 -1.564,-5.961 -6.27,-5.016 -4.635,-0.036 -4.549,4.647 -7.524,6.27 -0.703,-1.805 -1.957,-3.061 -3.762,-3.762 0.052,4.128 2.117,6.242 1.254,11.286 -5.329,-7.56 -8.196,3.842 -13.795,-3.762 -4.993,3.918 0.334,5.453 1.254,10.032 -2.872,1.726 -2.945,6.252 -6.27,7.525 -0.265,-1.408 -1.392,-1.953 -2.509,-2.509 -3.899,6.615 -9.967,16.117 -6.27,26.335 3.791,0.389 9.753,-1.393 10.033,2.508 -11.884,0.626 -17.644,3.411 -30.098,7.524 -1.241,8.594 7.249,2.597 7.524,7.524 8.905,-7.299 16.442,0.701 25.081,3.762 7.255,-2.782 20.28,-3.624 26.335,1.255 -4.344,1.09 -2.497,8.372 -7.524,8.778 -0.693,-2.233 -0.644,-5.209 -2.508,-6.271 -0.156,2.77 -5.319,0.532 -7.524,1.254 -1.871,7.305 6.384,4.486 6.271,10.032 -6.758,3.537 -12.949,-1.603 -17.557,-1.254 0.413,2.931 1.507,5.181 2.508,7.523 5.655,-1.056 6.262,2.936 10.033,3.764 0.196,-1.476 -0.216,-3.561 1.254,-3.764 1.259,1.667 1.186,4.667 3.762,5.018 4.02,-1.456 2.985,-8.714 3.762,-10.033 7.799,1.583 7.514,4.744 10.032,12.541 -2.222,0.285 -6.28,-1.265 -5.015,2.508 2.931,-0.387 5.181,-2.455 7.524,0 0.514,-7.428 5.821,-10.063 11.286,-12.541 0.986,4.45 8.341,2.528 8.779,7.525 -2.158,-0.068 -3.215,0.965 -3.762,2.508 2.335,1.198 4.191,-3.756 5.016,0 1.109,5.351 -9.946,5.019 -5.016,10.032 -1.934,-5.278 6.489,-0.199 6.27,-3.762 -0.363,-1.576 -1.304,-6.495 3.762,-6.271 2.407,-5.432 -4.64,-7.768 -1.254,-10.033 1.889,2.292 4.519,3.843 8.778,3.763 1.444,-1.482 1.419,-4.433 1.254,-7.524 -6.301,0.03 -11.358,-1.182 -13.794,-5.016 -0.792,-11.75 12,-5.224 11.287,-1.256 9.526,0.524 17.667,11.012 22.573,22.574 0.702,-2.605 1.956,-2.657 3.762,-1.254 -1.78,-4.91 -6.803,-6.572 -8.778,-11.287 6.774,0.344 6.646,1.06 11.287,-1.254 0,2.509 0,5.017 0,7.525 3.937,-1.395 3.313,-0.588 6.271,1.254 0.213,-1.877 -0.448,-4.628 1.254,-5.018 3.448,4.253 -0.057,18.055 8.778,20.065 2.304,-1.459 -0.659,-8.184 5.016,-6.27 -0.544,-2.789 -2.882,-6.801 1.254,-7.524 8.796,5.923 13.012,-4.813 20.065,1.254 3.679,-3.947 1.759,-7.963 0,-12.541 0.819,-1.906 1.97,-3.154 3.355,-3.975 -3.105,-4.279 -6.433,-8.635 -6.236,-12.631 0.301,-6.175 7.948,-6.516 6.386,-14.332 z"
   id="path2843"
   style="fill:#fff3e3;fill-rule:evenodd;stroke:#bcbec0;stroke-width:2;stroke-linecap:round;stroke-linejoin:round" />
</g>
<path
   d="m 191.59632,518.61468 c 5.091,0.429 0.89321,-1.51083 5.71421,0.91117 2.847,1.43 0.73859,4.32813 3.54254,7.00411 1.878,2.711 -0.30448,-2.78854 2.98752,-2.98954 3.578,-0.218 0.41992,-0.63558 3.12692,-1.81658 2.78,-1.213 1.95206,-3.32193 4.18906,-6.30093 -0.24992,-5.58486 -6.28464,-14.25057 3.33224,-14.432 8.39762,1.72483 6.31925,4.95116 7.29516,10.51584 1.95876,5.07657 0.91373,6.6324 5.65971,4.74155 6.81273,-3.00604 3.06132,-1.6463 6.03532,-1.4533 3.889,0.252 7.049,1.521 10.464,3.056 1.55,0.696 4.385,1.867 6.245,0.689 0.125,-0.079 2.27091,1.26494 2.36891,1.16394 -0.285,-3.645 -2.98387,-8.511 -4.93587,-11.342 -2.735,-3.967 -4.6451,-1.56506 -8.6421,-2.99706 -0.55689,-0.86708 4.21608,-11.3305 -2.58677,-10.45001 -6.60853,-0.46802 -8.87098,1.70635 -12.20313,-6.57078 -0.93801,-0.97494 -0.89528,-1.45001 -4.53971,-1.56482 -4.05669,-0.12778 -2.0833,2.33613 -8.45617,2.22451 -3.66849,1.00383 -9.5147,-5.1951 -10.2289,-5.35776 -1.28404,1.61196 -3.0942,1.48345 -4.1811,4.00595 -8.68173,-4.77168 -3.22901,-2.59024 -7.17507,-5.58625 -5.109,-3.141 -8.19109,1.08937 -7.80509,4.11337 0.425,3.32 0.67131,-3.21047 -5.11769,-0.40447 -3.44021,9.40364 3.64957,5.70924 2.58158,8.80354 -0.59032,3.30136 1.5737,7.43152 1.49666,8.46478 -2.0421,0.42586 -4.25858,1.50036 -5.42837,2.6414 -2.51661,2.45475 -2.80111,5.65281 -4.47277,6.42758 0.8603,7.02877 -3.71182,8.43554 -2.18472,11.30813 2.878,5.2 4.21421,-6.84142 6.65421,-2.50442 1.702,-1.438 4.58497,-2.48498 7.74097,-2.48498 3.974,-0.003 4.59245,-0.14697 8.52345,0.18403 z"
   id="path2845"
   style="opacity:1;fill:#ed1c24;fill-rule:evenodd;stroke:#bcbec0;stroke-width:2;stroke-linecap:round;stroke-linejoin:round"
   inkscape:connector-curvature="0"
   sodipodi:nodetypes="cccccccccccccccccsccccccccsccccc" />
<path
   d="m 297.156,611.728 c -0.197,-4.126 0.903,-8.111 1.478,-11.984 0.232,-1.562 0.44,-6.642 -0.972,-7.491 -1.435,-0.863 -5.177,1.16 -6.778,1.116 -2.924,-0.079 -3.765,-1.845 -5.426,-4.131 -2.265,-3.116 -2.975,-4.705 -1.638,-8.359 1.203,-3.29 0.779,-2.614 -0.535,-5.402 -0.924,-1.96 -0.205,-3.837 -0.257,-5.96 -0.07,-2.877 -1.62,-3.924 -2.37,-6.312 -1.693,-5.396 4.004,-6.02 7.042,-8.777 3.263,-2.962 8.56,-7.425 9.414,-11.982 1.124,-5.996 0.531,-15.317 7.289,-17.699 1.372,-0.483 3.288,0.05 4.564,-0.531 2.488,-1.132 1.383,-2.242 1.695,-5.004 0.318,-2.816 2.249,-7.263 1.033,-10.375 -0.634,-1.622 -2.889,-3.08 -3.952,-4.49 -0.112,-0.148 -0.207,-0.307 -0.306,-0.462 -2.741,0.916 -5.712,0.064 -8.606,-0.553 -7.352,-1.568 -14.427,-6.512 -21.87,-7.607 -3.638,-0.535 -8.591,-0.985 -10.474,2.947 -2.956,6.175 2.872,3.021 5.632,5.387 2.333,1.997 5.283,6.203 1.064,9.073 -1.596,1.086 -7.107,-1.031 -9.641,-0.844 0.698,7.577 -8.23,11.989 -12.548,6.712 0.107,0.295 -0.021,0.401 -0.384,0.314 -0.04,-0.331 -0.066,-0.691 -0.093,-1.049 -0.098,0.102 -0.203,0.197 -0.329,0.276 -1.859,1.178 -4.694,0.007 -6.245,-0.689 -3.415,-1.535 -6.576,-2.804 -10.464,-3.056 -3.65784,0.64625 -9.85579,8.13267 -11.86433,-4.50778 1.4233,-7.61358 -9.40889,-12.60342 -11.85371,-6.60969 -0.70959,1.85118 -0.71894,6.09901 1.09742,8.41218 0.935,2.896 0.79485,3.66324 -0.87515,5.88824 -2.237,2.979 -0.0184,0.14401 -2.11959,3.90249 -2.707,1.181 0.047,2.34621 -3.53101,2.56421 -3.29759,0.18862 -0.37686,-0.37458 -2.54621,1.83076 -1.604,-2.315 -0.51936,-4.1321 -3.36536,-5.5621 -4.82,-4.1617 -7.57236,-1.74244 -12.66436,-2.16582 -3.931,-0.331 -5.63427,1.27289 -10.01101,2.15818 -4.04917,0.81903 -9.62996,8.15061 -7.05615,11.72751 -1.16989,0.45525 0.80264,3.79237 2.26208,4.07692 1.401,2.57 5.78828,11.10542 5.17928,13.46342 -0.757,-0.102 -0.9649,2.27948 -1.6649,2.09548 5.844,6.351 4.611,22.197 6.632,30.164 1.145,4.513 1.64,11.974 5.946,15.003 4.591,3.23 11.812,0.784 14.843,7.568 2.664,5.963 -1.83,10.499 5.886,12.842 7.643,2.321 11.779,-2.654 16.792,-5.797 9.339,-5.852 18.656,-0.418 28.646,0.128 1.562,7.816 -6.084,8.157 -6.389,14.336 -0.197,3.996 3.131,8.352 6.236,12.631 4.872,-2.882 12.656,-0.427 19.217,-2.295 2.654,1.526 3.642,4.718 7.524,5.016 7.458,-4.292 12.746,-6.723 20.065,-8.779 -1.793,-3.889 0.211,-8.107 5.016,-8.777 0.84,-3.045 1.89,-5.738 3.124,-8.129 -2.544,-1.395 -5.162,-2.474 -7.94,-3.416 -1.081,-0.369 -1.908,-0.142 -2.908,-0.837 z"
   id="path2847"
   style="opacity:0.56000000999999999;fill:#fffde9;fill-rule:evenodd;stroke:#bcbcc0;stroke-width:2;stroke-linecap:round;stroke-linejoin:round;stroke-opacity:1"
   inkscape:connector-curvature="0"
   sodipodi:nodetypes="ccccccccccccccccccccccccccccccccccccccsccccccccccccccccccc" />
<path
   d="m 341.326,455.744 c -3.447,0.332 -7.297,0.389 -10.551,1.892 -1.434,0.662 -2.117,1.522 -3.264,2.518 -1.23,1.068 -2.608,2.058 -3.875,3.141 -4.248,3.628 -5.893,10.036 -8.311,15.054 -1.082,2.245 -1.832,4.389 -3.382,6.558 0.568,0.142 1.088,0.321 1.495,0.584 4.141,2.675 6.354,6.064 4.05,11.391 -1.572,-0.109 -5.505,-0.371 -6.786,0.636 -1.786,1.403 0.132,4.396 -1.542,5.521 -0.561,0.378 -1.137,0.649 -1.722,0.846 0.099,0.155 0.193,0.313 0.306,0.462 1.063,1.41 3.318,2.868 3.952,4.49 1.216,3.112 -0.715,7.559 -1.033,10.375 -0.312,2.762 0.793,3.872 -1.695,5.004 -1.276,0.581 -3.192,0.048 -4.564,0.531 -6.758,2.382 -6.165,11.703 -7.289,17.699 -0.854,4.558 -6.151,9.021 -9.414,11.982 -3.038,2.758 -8.735,3.381 -7.042,8.777 0.75,2.389 2.3,3.436 2.37,6.312 0.052,2.123 -0.667,4 0.257,5.96 1.314,2.788 1.738,2.112 0.535,5.402 -1.336,3.654 -0.626,5.243 1.638,8.359 1.661,2.286 2.501,4.052 5.426,4.131 1.601,0.044 5.343,-1.979 6.778,-1.116 1.412,0.85 1.204,5.93 0.972,7.491 -0.575,3.873 -1.675,7.858 -1.478,11.984 1,0.695 1.827,0.469 2.907,0.835 2.778,0.942 5.396,2.021 7.94,3.416 14.266,-27.65 53.354,-14.408 82.152,-24.476 0.773,3.406 2.488,5.872 5.017,7.522 3.715,-5.795 14.732,-0.58 20.064,0 16.41,-6.997 25.005,-21.812 31.352,-38.875 -0.537,-2.387 -2.701,-3.15 -2.508,-6.27 -6.521,1.004 -7.238,7.812 -11.287,11.285 -3.109,0.186 -6.085,0.234 -6.27,-2.508 0.669,-6.854 3.001,-12.046 2.507,-20.063 -6.547,-3.903 -8.411,-12.488 -20.063,-11.287 -6.004,-13.225 -22.34,-16.118 -22.573,-35.112 -3.998,-1.072 -4.76,1.092 -6.271,2.508 -3.481,-6.552 -13.827,-6.238 -20.064,-10.033 -3.612,0.15 -2.176,5.348 -6.271,5.017 -10.327,-7.716 -2.151,-22.883 -7.524,-30.098 5.027,-0.073 6.638,-3.563 8.59,-6.712 -1.377,-0.73 -2.728,-1.312 -4.642,-1.41 -2.968,-0.151 -5.979,-0.003 -8.887,0.277 z"
   id="path2849"
   style="fill:#fff3e3;fill-rule:evenodd;stroke:#bcbec0;stroke-width:2;stroke-linecap:round;stroke-linejoin:round" />
<path
   d="m 509.125,299.671 c -3.987,-4.403 -5.938,-5.454 -7.479,-11.077 -2.362,-8.616 0,-17.016 0,-26.548 0,-7.743 -1.645,-18.085 -9.672,-21.672 -3.17,-1.416 -2.421,-0.6 -5.933,-0.421 -1.006,0.051 -4.549,-0.297 -5.528,-0.145 -6.523,1.017 -6.108,5.211 -6.565,10.646 -2.729,0.927 -2.85,3.278 -4.752,4.726 -4.358,3.318 -12.322,1.467 -16.459,5.621 -3.739,3.756 -1.215,9.974 -3.074,14.25 -1.96,4.511 -6.075,6.423 -7.073,11.376 -1.236,6.143 1.37,8.12 -4.318,12.068 -2.781,1.929 -3.49,0.007 -4.406,3.672 -0.257,1.031 1.787,3.595 0.608,5.822 -0.625,1.181 -3.38,2.104 -4.358,3.347 -0.97,1.231 -1.066,5.016 -2.795,5.876 -6.869,3.42 -9.017,-8.593 -15.041,-7.524 -4.96,0.879 -7.546,8.293 -10.042,11.849 -4.318,6.152 -25.986,17.312 -17.225,2.572 1.692,-2.847 3.4,-3.714 3.397,-7.339 -0.002,-2.277 -1.705,-3.152 -1.623,-5.422 0.093,-2.586 2.182,-3.475 2.178,-5.958 -0.007,-3.932 -1.419,-2.915 -3.385,-5.297 -2.646,-3.208 -4.75,-7.261 -8.441,-10.574 -3.926,-3.522 -6.743,-5.007 -4.047,-10.959 2.58,-5.696 9.873,-6.354 10.47,-12.749 0.18,-1.923 -2.964,-2.56 -1.27,-4.979 1.143,-1.633 4.576,-0.99 6.458,-1.035 0.685,-2.506 -1.126,-5.265 -0.353,-7.516 0.892,-2.592 4.529,-2.378 3.683,-5.705 -1.03,-4.048 -11.216,-3.898 -14.428,-3.125 -5.55,1.337 -10.903,4.681 -15.965,7.858 0.434,3.158 -0.074,6.438 -1.782,9.735 -2.583,4.987 -5.231,2.54 -5.71,9.501 -0.375,5.452 2.021,6.805 -0.051,11.849 -1.477,3.596 -5.576,7.166 -7.548,10.205 -2.342,3.608 -2.348,7.494 -6.421,10.132 -6.342,4.107 -21.326,-0.56 -19.125,10.879 -7.452,-1.144 -5.461,2.622 -7.49,6.9 -2.163,4.557 -2.926,5.974 -6.158,10.111 -4.538,5.809 -6.287,14.881 -5.825,22.257 0.77,0.12 1.538,0.238 2.314,0.365 4.657,0.763 10.059,2.021 13.741,5.603 3.708,3.607 4.033,8.257 7.913,11.915 4.421,4.169 9.912,4.583 5.25,10.835 -4.498,6.031 -6.835,3.316 -6.84,12.302 -0.002,4.623 0.408,15.009 -6.343,14.968 -6.134,-0.037 -3.235,-8.188 -12.276,-7.218 -6.703,0.72 -27.008,16.694 -13.132,18.906 0.556,3.979 -4.605,9.053 -6.536,12.699 -2.911,5.499 -4.998,7.214 -2.55,13.583 1.846,4.807 5.259,6.702 4.193,12.639 -0.664,3.694 -5.655,7.387 -4.389,11.521 1.85,6.038 6.388,-0.712 10.85,-0.774 2.11,-0.029 9.913,4.781 11.397,6.7 1.486,1.92 0.326,4.803 2.116,6.569 0.909,0.897 2.993,0.993 4.658,1.411 1.551,-2.169 2.3,-4.312 3.382,-6.558 2.418,-5.018 4.063,-11.426 8.311,-15.054 1.268,-1.083 2.646,-2.072 3.875,-3.141 1.147,-0.995 1.83,-1.855 3.264,-2.518 3.254,-1.503 7.104,-1.56 10.551,-1.892 2.908,-0.28 5.919,-0.428 8.886,-0.277 1.914,0.098 3.264,0.68 4.642,1.41 0.448,-0.722 0.914,-1.425 1.442,-2.066 3.555,-0.529 5.631,6.778 7.525,3.762 -2.005,-3.431 -2.582,-8.286 -2.509,-13.794 2.31,-1.87 4.4,-3.96 6.271,-6.27 -2.604,-0.322 -0.342,-5.51 -2.508,-6.271 -3.898,1.318 -10.892,4.878 -13.795,0 1.772,-2.408 6.09,-2.27 8.778,-3.762 -3.387,-5.972 4.099,-9.019 -1.254,-13.796 8.869,1.442 10.812,-11.448 20.064,-5.016 0.425,-7.153 6.487,-4.617 10.033,-6.271 -1.521,0.383 -4.325,-3.623 -1.254,-3.762 4.525,0.562 6.069,3.215 10.031,1.254 -0.094,-2.186 0.28,-3.9 1.255,-5.017 -1.476,-0.196 -3.561,0.217 -3.763,-1.253 5.543,-5.745 15.771,-6.804 17.557,-16.304 3.87,5.327 13.922,4.471 22.573,5.016 -0.188,-3.113 0.647,-5.203 2.509,-6.269 -0.98,5.576 1.182,8.014 6.27,7.523 1.514,-5.275 -2.025,-5.499 -2.509,-8.778 17.95,0.835 25.381,-14.206 38.876,-13.795 -0.037,-7.49 -8.661,-6.389 -7.524,-15.05 14.607,-1.266 26.216,-8.615 35.114,-18.81 0.879,6.251 2.673,-4.748 8.777,-1.254 2.275,-2.394 3.891,-5.449 5.244,-8.764 -2.815,-0.874 -5.47,-1.864 -7.274,-3.669 -4.038,-4.034 -1.631,-10.336 -5.658,-14.785 z"
   id="path2851"
   style="fill:#fffde9;fill-rule:evenodd;stroke:#bcbec0;stroke-width:2;stroke-linecap:round;stroke-linejoin:round" />
<path
   d="m 500.563,238.207 c 0.822,-3.507 4.399,-5.147 4.872,-8.129 0.57,-3.59 -3.648,-6.328 -4.766,-9.465 -1.326,-3.723 -0.22,-8.087 -0.811,-11.558 -0.242,-1.42 -1.604,-3.407 -1.518,-4.944 0.321,-5.689 2.685,-2.984 4.929,-4.914 0.568,-0.488 1.998,0.343 2.747,-0.354 0.943,-0.877 -0.092,-2.17 0.504,-2.894 1.398,-1.698 -1.116,-3.665 2.629,-3.875 1.138,-5.471 -7.46,-6.124 -9.685,-9.645 -2.621,-4.147 -0.691,-11.406 -1.884,-16.005 -1.001,-3.864 -0.158,-7.151 -1.354,-11.113 -1.235,-4.087 -5.12,-9.321 2.152,-10.294 -6.857,-0.552 -4.153,-4.506 -3.538,-8.193 -8.269,-1.932 -14.478,-3.865 -24.427,-3.052 -1.389,5.33 -11.042,8.981 -15.048,7.524 0.34,-2.586 5.552,-0.3 5.016,-3.763 -12.948,-4.373 -26.415,-3.388 -37.621,2.508 0.059,11.103 3.448,13.951 0,22.573 3.316,4.035 5.317,4.526 5.016,10.032 8.654,2.633 12.323,10.25 16.303,17.557 -3.689,2.581 -2.829,9.712 -8.778,10.033 -1.036,3.544 1.767,3.249 1.254,6.27 -5.462,2.898 -6.605,10.116 -16.303,8.778 -13.54,-20.97 -36.951,3.73 -52.67,-13.794 -16.807,3.099 -23.397,-2.275 -40.13,-2.508 0.003,-1.257 -1.016,-1.492 -1.254,-2.508 0.285,-2.222 -1.264,-6.28 2.508,-5.016 -0.632,-6.59 -7.906,-6.539 -9.807,-11.859 -0.583,0.224 -1.188,0.408 -1.807,0.542 -0.052,1.493 0.626,6.233 -0.131,7.448 -1.326,2.127 -4.309,3.093 -5.098,4.233 -1.867,2.699 -3.344,-0.038 -3.192,4.91 0.063,2.076 2.853,4.028 3.851,5.479 4.528,6.581 8.994,15.097 12.038,23.496 2.24,6.177 2.851,19.12 10.33,21.831 -0.795,-0.288 11.872,0.797 10.792,1.078 3.853,-1.001 6.822,-6.759 10.227,-8.623 3.113,3.417 5.221,7.265 5.777,11.316 5.062,-3.177 10.415,-6.521 15.965,-7.858 3.212,-0.774 13.397,-0.923 14.428,3.125 0.847,3.327 -2.791,3.112 -3.683,5.705 -0.773,2.25 1.037,5.009 0.353,7.516 -1.882,0.045 -5.315,-0.598 -6.458,1.035 -1.694,2.419 1.449,3.056 1.27,4.979 -0.597,6.395 -7.89,7.053 -10.47,12.749 -2.696,5.952 0.121,7.437 4.047,10.959 3.691,3.313 5.796,7.367 8.441,10.574 1.966,2.383 3.378,1.365 3.385,5.297 0.004,2.482 -2.085,3.372 -2.178,5.958 -0.082,2.271 1.621,3.146 1.623,5.422 0.003,3.625 -1.705,4.492 -3.397,7.339 -8.762,14.74 12.906,3.58 17.225,-2.572 2.496,-3.556 5.082,-10.97 10.042,-11.849 6.024,-1.068 8.172,10.944 15.041,7.524 1.729,-0.86 1.825,-4.645 2.795,-5.876 0.979,-1.242 3.733,-2.166 4.358,-3.347 1.179,-2.227 -0.865,-4.791 -0.608,-5.822 0.916,-3.665 1.625,-1.743 4.406,-3.672 5.688,-3.949 3.082,-5.925 4.318,-12.068 0.998,-4.953 5.113,-6.865 7.073,-11.376 1.859,-4.277 -0.665,-10.495 3.074,-14.25 4.137,-4.154 12.101,-2.303 16.459,-5.621 1.902,-1.448 2.023,-3.799 4.752,-4.726 0.457,-5.435 0.042,-9.628 6.565,-10.646 0.979,-0.152 4.522,0.196 5.528,0.145 3.512,-0.179 2.763,-0.995 5.933,0.421 4.658,2.082 7.158,6.441 8.444,11.244 0.089,-0.827 0.145,-1.679 0.144,-2.575 -10e-4,-3.309 -0.75,-7.627 0.002,-10.836 z"
   id="path2853"
   style="fill:#f3f8e8;fill-rule:evenodd;stroke:#bcbec0;stroke-width:2;stroke-linecap:round;stroke-linejoin:round" />
<path
   d="m 617.139,112.454 c 4.533,-0.483 5.988,-4.045 8.778,-6.27 1.739,0.77 0.189,4.827 2.509,5.016 2.956,-5.592 6.655,-9.112 6.271,-15.048 5.156,-7 20.847,-1.578 17.557,6.27 2.925,-0.419 5.402,-1.286 6.27,-3.762 -0.978,-0.277 -1.458,-1.05 -1.254,-2.508 -3.118,-0.614 -7.077,-0.293 -8.778,-5.017 1.023,-3.994 2.127,-7.905 6.271,-8.778 -11.91,-0.212 -8.326,-15.919 -13.796,-22.573 0.865,3.372 -2.591,2.424 -3.761,3.762 -0.533,-2.103 -2.186,-3.084 -3.218,-4.687 -0.469,3.543 1.178,7.833 0.279,11.297 -1.214,4.678 -2.841,5.779 -6.765,7.381 -4.902,2.001 -11.308,4.738 -4.533,9.492 -2.773,2.746 -5.961,3.556 -9.316,5.829 -0.9,0.609 -0.694,2.313 -2.008,3.29 -1.695,1.259 -3.553,-0.934 -4.943,1.72 -1.623,3.097 2.562,6.58 3.939,8.683 1.686,2.574 3.867,5.143 5.178,8.438 0.336,0.846 0.629,1.668 0.901,2.474 0.621,-1.456 0.82,-3.104 0.419,-5.009 z"
   id="path2855"
   style="fill:#ed1c24;fill-rule:evenodd;stroke:#bcbec0;stroke-width:2;stroke-linecap:round;stroke-linejoin:round" />
<path
   d="m 610.64,106.55 c -1.377,-2.103 -5.562,-5.586 -3.939,-8.683 1.391,-2.654 3.248,-0.46 4.943,-1.72 1.313,-0.977 1.107,-2.681 2.008,-3.29 3.355,-2.272 6.543,-3.083 9.316,-5.829 -6.774,-4.754 -0.369,-7.491 4.533,-9.492 3.924,-1.602 5.551,-2.703 6.765,-7.381 0.898,-3.464 -0.748,-7.754 -0.279,-11.297 -0.769,-1.195 -1.193,-2.733 -0.545,-5.345 -11.874,-5.192 -18.404,-18.616 -15.049,-31.352 -3.003,0.759 -5.721,1.803 -10.031,1.254 -1.716,-1.604 -1.716,-5.921 0,-7.525 -7.564,0.302 -12.341,4.581 -17.557,-1.254 -0.303,2.206 -2.158,2.859 -5.018,2.508 0.751,4.511 -0.45,7.073 -3.761,7.524 1.884,11.08 -3.188,15.205 -5.017,22.573 2.735,-0.228 3.989,1.026 3.762,3.762 -1.592,3.006 -5.497,3.699 -5.016,8.778 1.876,0.214 4.628,-0.448 5.016,1.254 -7.732,3.212 -5.8,27.798 -20.064,16.302 -1.038,7.404 1.446,12.036 -8.779,11.287 -1.374,-4.478 -4.299,-7.404 -8.778,-8.778 -5.729,1.377 -5.442,8.769 -12.54,8.778 -1.076,8.624 -6.723,13.261 -3.762,22.572 -10.681,3.532 -14.724,13.701 -26.336,16.303 2.602,4.615 -0.376,6.897 -2.508,10.032 -1.094,-0.233 -2.141,-0.472 -3.162,-0.71 -0.615,3.687 -3.319,7.641 3.538,8.193 -7.272,0.973 -3.388,6.207 -2.152,10.294 1.196,3.962 0.354,7.249 1.354,11.113 1.192,4.599 -0.737,11.858 1.884,16.005 2.225,3.521 10.822,4.173 9.685,9.645 -3.745,0.21 -1.23,2.177 -2.629,3.875 -0.596,0.724 0.439,2.017 -0.504,2.894 -0.749,0.697 -2.179,-0.134 -2.747,0.354 -2.244,1.93 -4.607,-0.775 -4.929,4.914 -0.087,1.537 1.275,3.524 1.518,4.944 0.591,3.47 -0.516,7.834 0.811,11.558 1.117,3.137 5.336,5.875 4.766,9.465 -0.473,2.982 -4.05,4.623 -4.872,8.129 -0.753,3.208 -0.004,7.527 -0.002,10.836 0.001,0.896 -0.055,1.749 -0.144,2.575 0.929,3.474 1.228,7.178 1.228,10.428 0,9.532 -2.362,17.933 0,26.548 1.542,5.623 3.492,6.674 7.479,11.077 4.027,4.448 1.62,10.751 5.659,14.792 1.805,1.806 4.459,2.795 7.274,3.669 2.524,-6.184 4.124,-13.291 7.297,-18.825 3.832,-0.906 4.57,1.281 7.523,1.253 -0.795,-7.065 7.34,-5.202 7.525,-11.286 0.196,1.476 -0.215,3.56 1.253,3.762 6.524,-6.427 20.875,-15.602 30.099,-11.287 3.878,-21.446 -12.219,-44.313 3.761,-65.21 -5.315,-8.896 -17.416,-11.008 -13.794,-28.844 5.024,-5.843 6.495,-15.241 11.287,-21.318 2.507,0 5.017,0 7.523,0 3.212,-7.864 1.209,-14.198 6.271,-18.812 1.602,1.715 5.92,1.715 7.523,0 -4.648,-7.82 5.744,-12.402 2.508,-18.81 5.412,-3.173 13.578,-5.9 15.883,-11.294 -0.272,-0.806 -0.565,-1.628 -0.901,-2.474 -1.31,-3.291 -3.492,-5.86 -5.177,-8.434 z"
   id="path2857"
   style="fill:#fff3e3;fill-rule:evenodd;stroke:#bcbec0;stroke-width:2;stroke-linecap:round;stroke-linejoin:round" />



<rect
   width="20.087999"
   height="20.087999"
   x="24.771999"
   y="29.164"
   id="rect2865"
   style="fill:#f3f8e8;fill-rule:evenodd;stroke:#bcbec0;stroke-width:2;stroke-linecap:round;stroke-linejoin:round" />
<rect
   width="20.087999"
   height="20.087999"
   x="24.771999"
   y="61.120998"
   id="rect2867"
   style="fill:#ffc20e;fill-rule:evenodd;stroke:#bcbec0;stroke-width:2;stroke-linecap:round;stroke-linejoin:round" />
<rect
   width="20.087999"
   height="20.087999"
   x="24.771999"
   y="93.078003"
   id="rect2869"
   style="fill:#ed1c24;fill-rule:evenodd;stroke:#bcbec0;stroke-width:2;stroke-linecap:round;stroke-linejoin:round" />
<text
   x="48.460949"
   y="481.89398"
   id="text2879"
   xml:space="preserve"
   style="font-size:20px;font-style:normal;font-variant:normal;font-weight:normal;font-stretch:normal;fill:#000000;fill-opacity:1;stroke:none;font-family:Baekmuk Dotum;-inkscape-font-specification:Baekmuk Dotum"><tspan
     x="48.460949"
     y="481.89398"
     id="tspan2881"
     style="font-size:20px">평양직할시</tspan></text>


<text
   x="601.5473"
   y="133.94383"
   id="text2883"
   xml:space="preserve"
   style="font-size:18px;font-style:normal;font-variant:normal;font-weight:normal;font-stretch:normal;fill:#000000;fill-opacity:1;stroke:none;font-family:Baekmuk Dotum;-inkscape-font-specification:Baekmuk Dotum"><tspan
     x="601.5473"
     y="133.94383"
     id="tspan2885"
     style="font-size:20px">라선특별시</tspan></text>


<text
   x="505.16724"
   y="156.44974"
   id="text2883-1"
   xml:space="preserve"
   style="font-size:20px;font-style:normal;font-variant:normal;font-weight:normal;font-stretch:normal;fill:#000000;fill-opacity:1;stroke:none;font-family:Baekmuk Headline;-inkscape-font-specification:Baekmuk Headline"><tspan
     x="505.16724"
     y="156.44974"
     id="tspan2885-7"
     style="font-size:20px;font-style:normal;font-variant:normal;font-weight:normal;font-stretch:normal;font-family:Baekmuk Dotum;-inkscape-font-specification:Baekmuk Dotum">함경북도</tspan></text>


<path
   d="m 640.48709,88.304216 0,25.252974"
   id="path2916"
   style="fill:none;stroke:#000000;stroke-width:1.34099615px;stroke-linecap:butt;stroke-linejoin:miter;stroke-opacity:1" /><text
   x="396.12692"
   y="240.04855"
   id="text2883-1-4"
   xml:space="preserve"
   style="font-size:20px;font-style:normal;font-variant:normal;font-weight:normal;font-stretch:normal;fill:#000000;fill-opacity:1;stroke:none;font-family:Baekmuk Headline;-inkscape-font-specification:Baekmuk Headline"><tspan
     x="396.12692"
     y="240.04855"
     id="tspan2885-7-0"
     style="font-size:20px;font-style:normal;font-variant:normal;font-weight:normal;font-stretch:normal;font-family:Baekmuk Dotum;-inkscape-font-specification:Baekmuk Dotum">량강도</tspan></text>


<text
   x="221.96448"
   y="303.10736"
   id="text2883-1-48"
   xml:space="preserve"
   style="font-size:20px;font-style:normal;font-variant:normal;font-weight:normal;font-stretch:normal;fill:#000000;fill-opacity:1;stroke:none;font-family:Baekmuk Headline;-inkscape-font-specification:Baekmuk Headline"><tspan
     x="221.96448"
     y="303.10736"
     id="tspan2885-7-8"
     style="font-size:20px;font-style:normal;font-variant:normal;font-weight:normal;font-stretch:normal;font-family:Baekmuk Dotum;-inkscape-font-specification:Baekmuk Dotum">자강도</tspan></text>


<text
   x="356.33978"
   y="358.65918"
   id="text2883-1-45"
   xml:space="preserve"
   style="font-size:20px;font-style:normal;font-variant:normal;font-weight:normal;font-stretch:normal;fill:#000000;fill-opacity:1;stroke:none;font-family:Baekmuk Headline;-inkscape-font-specification:Baekmuk Headline"><tspan
     x="356.33978"
     y="358.65918"
     id="tspan2885-7-5"
     style="font-size:20px;font-style:normal;font-variant:normal;font-weight:normal;font-stretch:normal;font-family:Baekmuk Dotum;-inkscape-font-specification:Baekmuk Dotum">함경남도</tspan></text>


<text
   x="193.43787"
   y="454.74881"
   id="text2883-1-7"
   xml:space="preserve"
   style="font-size:20px;font-style:normal;font-variant:normal;font-weight:normal;font-stretch:normal;fill:#000000;fill-opacity:1;stroke:none;font-family:Baekmuk Headline;-inkscape-font-specification:Baekmuk Headline"><tspan
     x="193.43787"
     y="454.74881"
     id="tspan2885-7-1"
     style="font-size:20px;font-style:normal;font-variant:normal;font-weight:normal;font-stretch:normal;font-family:Baekmuk Dotum;-inkscape-font-specification:Baekmuk Dotum">평안남도</tspan></text>


<text
   x="314.3006"
   y="555.34265"
   id="text2883-1-2"
   xml:space="preserve"
   style="font-size:20px;font-style:normal;font-variant:normal;font-weight:normal;font-stretch:normal;fill:#000000;fill-opacity:1;stroke:none;font-family:Baekmuk Headline;-inkscape-font-specification:Baekmuk Headline"><tspan
     x="314.3006"
     y="555.34265"
     id="tspan2885-7-7"
     style="font-size:20px;font-style:normal;font-variant:normal;font-weight:normal;font-stretch:normal;font-family:Baekmuk Dotum;-inkscape-font-specification:Baekmuk Dotum">강원도</tspan></text>


<text
   x="195.68996"
   y="578.61438"
   id="text2883-1-1"
   xml:space="preserve"
   style="font-size:20px;font-style:normal;font-variant:normal;font-weight:normal;font-stretch:normal;fill:#000000;fill-opacity:1;stroke:none;font-family:Baekmuk Headline;-inkscape-font-specification:Baekmuk Headline"><tspan
     x="195.68996"
     y="578.61438"
     id="tspan2885-7-4"
     style="font-size:20px;font-style:normal;font-variant:normal;font-weight:normal;font-stretch:normal;font-family:Baekmuk Dotum;-inkscape-font-specification:Baekmuk Dotum">황해북도</tspan></text>


<text
   x="113.86364"
   y="615.39868"
   id="text2883-1-22"
   xml:space="preserve"
   style="font-size:20px;font-style:normal;font-variant:normal;font-weight:normal;font-stretch:normal;fill:#000000;fill-opacity:1;stroke:none;font-family:Baekmuk Headline;-inkscape-font-specification:Baekmuk Headline"><tspan
     x="113.86364"
     y="615.39868"
     id="tspan2885-7-16"
     style="font-size:20px;font-style:normal;font-variant:normal;font-weight:normal;font-stretch:normal;font-family:Baekmuk Dotum;-inkscape-font-specification:Baekmuk Dotum">황해남도</tspan></text>


<text
   x="105.60594"
   y="382.68158"
   id="text2883-1-5"
   xml:space="preserve"
   style="font-size:20px;font-style:normal;font-variant:normal;font-weight:normal;font-stretch:normal;fill:#000000;fill-opacity:1;stroke:none;font-family:Baekmuk Headline;-inkscape-font-specification:Baekmuk Headline"><tspan
     x="105.60594"
     y="382.68158"
     id="tspan2885-7-76"
     style="font-size:20px;font-style:normal;font-variant:normal;font-weight:normal;font-stretch:normal;font-family:Baekmuk Dotum;-inkscape-font-specification:Baekmuk Dotum">평안북도</tspan></text>


<text
   x="5.505208"
   y="319.75156"
   id="text2883-1-9"
   xml:space="preserve"
   style="font-size:20px;font-style:normal;font-variant:normal;font-weight:normal;font-stretch:normal;fill:#000000;fill-opacity:1;stroke:none;font-family:Baekmuk Headline;-inkscape-font-specification:Baekmuk Headline"><tspan
     x="5.505208"
     y="319.75156"
     id="tspan2885-7-2"
     style="font-size:20px;font-style:normal;font-variant:normal;font-weight:normal;font-stretch:normal;font-family:Baekmuk Dotum;-inkscape-font-specification:Baekmuk Dotum">신의주특별행정구</tspan></text>


<text
   x="288.02609"
   y="658.1886"
   id="text2883-1-95"
   xml:space="preserve"
   style="font-size:20px;font-style:normal;font-variant:normal;font-weight:normal;font-stretch:normal;fill:#000000;fill-opacity:1;stroke:none;font-family:Baekmuk Headline;-inkscape-font-specification:Baekmuk Headline"><tspan
     x="288.02609"
     y="658.1886"
     id="tspan2885-7-43"
     style="font-size:20px;font-style:normal;font-variant:normal;font-weight:normal;font-stretch:normal;font-family:Baekmuk Dotum;-inkscape-font-specification:Baekmuk Dotum">개성공업지구</tspan></text>


<text
   x="449.42664"
   y="553.09052"
   id="text2883-1-3"
   xml:space="preserve"
   style="font-size:20px;font-style:normal;font-variant:normal;font-weight:normal;font-stretch:normal;fill:#000000;fill-opacity:1;stroke:none;font-family:Baekmuk Headline;-inkscape-font-specification:Baekmuk Headline"><tspan
     x="449.42664"
     y="553.09052"
     id="tspan2885-7-3"
     style="font-size:20px;font-style:normal;font-variant:normal;font-weight:normal;font-stretch:normal;font-family:Baekmuk Dotum;-inkscape-font-specification:Baekmuk Dotum">금강산관광지구</tspan></text>


<path
   d="m 63.273966,326.27596 c 0,2.40418 0,4.80832 0,7.2125 0,8.17415 0,16.34829 0,24.52242 0,1.92334 0,3.84667 0,5.76999 0,0.48084 0,0.96167 0,1.44251 0,0.48082 0.02926,1.4425 0,1.4425 -0.02925,0 0,-0.96168 0,-1.4425"
   id="path3101"
   style="fill:none;stroke:#000000;stroke-width:0.47399408px;stroke-linecap:butt;stroke-linejoin:miter;stroke-opacity:1" /><text
   x="70.926674"
   y="45.621101"
   id="text2883-1-48-4"
   xml:space="preserve"
   style="font-size:20px;font-style:normal;font-variant:normal;font-weight:normal;font-stretch:normal;fill:#000000;fill-opacity:1;stroke:none;font-family:Baekmuk Headline;-inkscape-font-specification:Baekmuk Headline"><tspan
     x="70.926674"
     y="45.621101"
     id="tspan2885-7-8-1"
     style="font-size:20px;font-style:normal;font-variant:normal;font-weight:normal;font-stretch:normal;font-family:Baekmuk Dotum;-inkscape-font-specification:Baekmuk Dotum">도</tspan></text>


<text
   x="70.926674"
   y="45.621101"
   id="text3128"
   xml:space="preserve"
   style="font-size:20px;font-style:normal;font-variant:normal;font-weight:normal;font-stretch:normal;fill:#000000;fill-opacity:1;stroke:none;font-family:Baekmuk Headline;-inkscape-font-specification:Baekmuk Headline"><tspan
     x="70.926674"
     y="45.621101"
     id="tspan3130"
     style="font-size:20px;font-style:normal;font-variant:normal;font-weight:normal;font-stretch:normal;font-family:Baekmuk Dotum;-inkscape-font-specification:Baekmuk Dotum" /></text>


<text
   x="70.926674"
   y="45.621101"
   id="text3132"
   xml:space="preserve"
   style="font-size:20px;font-style:normal;font-variant:normal;font-weight:normal;font-stretch:normal;fill:#000000;fill-opacity:1;stroke:none;font-family:Baekmuk Headline;-inkscape-font-specification:Baekmuk Headline"><tspan
     x="70.926674"
     y="45.621101"
     id="tspan3134"
     style="font-size:20px;font-style:normal;font-variant:normal;font-weight:normal;font-stretch:normal;font-family:Baekmuk Dotum;-inkscape-font-specification:Baekmuk Dotum" /></text>


<text
   x="70.926674"
   y="78.532288"
   id="text2883-1-48-3"
   xml:space="preserve"
   style="font-size:20px;font-style:normal;font-variant:normal;font-weight:normal;font-stretch:normal;fill:#000000;fill-opacity:1;stroke:none;font-family:Baekmuk Headline;-inkscape-font-specification:Baekmuk Headline"><tspan
     x="70.926674"
     y="78.532288"
     id="tspan2885-7-8-8"
     style="font-size:20px;font-style:normal;font-variant:normal;font-weight:normal;font-stretch:normal;font-family:Baekmuk Dotum;-inkscape-font-specification:Baekmuk Dotum">지구</tspan></text>


<text
   x="70.926674"
   y="108.25848"
   id="text2883-1-48-42"
   xml:space="preserve"
   style="font-size:20px;font-style:normal;font-variant:normal;font-weight:normal;font-stretch:normal;fill:#000000;fill-opacity:1;stroke:none;font-family:Baekmuk Headline;-inkscape-font-specification:Baekmuk Headline"><tspan
     x="70.926674"
     y="108.25848"
     id="tspan2885-7-8-7"
     style="font-size:20px;font-style:normal;font-variant:normal;font-weight:normal;font-stretch:normal;font-family:Baekmuk Dotum;-inkscape-font-specification:Baekmuk Dotum">직할시, 특별시</tspan></text>


<text
   x="111.10363"
   y="78.072823"
   id="text3158"
   xml:space="preserve"
   style="font-size:16px;font-style:normal;font-variant:normal;font-weight:normal;font-stretch:normal;fill:#000000;fill-opacity:1;stroke:none;font-family:Baekmuk Headline;-inkscape-font-specification:Baekmuk Headline"><tspan
     x="111.10363"
     y="78.072823"
     id="tspan3160" /></text>


<path
   inkscape:connector-curvature="0"
   d="m 141.26138,542.8674 c -0.38825,1.38369 -1.77445,5.16447 1.01555,2.93943 4.65299,-1.03639 3.73311,-1.30377 6.05311,-1.11477 2.956,-5.592 7.35335,7.87155 6.96935,1.93555 3.27821,-4.45064 3.17581,-10.5195 5.02929,-8.80664 1.06168,0.98114 1.86359,8.39883 4.51113,8.98455 3.15627,-0.2938 14.41233,8.1561 10.28411,-2.49633 -0.32185,-0.42893 -0.67999,0.78456 -3.41891,-6.30416 -2.07272,-2.28175 0.48518,-6.14334 -2.6423,-7.45955 -5.10873,-2.15003 -1.33556,-4.28142 0.48461,-11.05762 1.023,-3.994 0.69705,-3.80811 2.80467,-8.66903 -4.78266,-1.56959 -6.21932,-1.75046 -9.059,-1.78622 -3.63201,0.40228 -4.22019,0.0748 -5.39019,1.41284 -0.533,-2.103 -2.45511,3.84245 -3.48711,2.23945 -3.0368,1.64613 2.74377,2.93307 -8.16932,3.1569 -5.51769,0.18292 -6.7345,-3.12974 -9.04636,-5.09141 0.6132,3.61313 -0.36245,-0.35296 -0.54509,6.43742 -2.773,2.746 0.31785,4.0651 -3.03715,6.3381 -0.88121,1.46559 -0.78465,5.14111 -1.9449,7.47063 -1.623,3.097 -1.59562,5.05271 -0.21862,7.15571 1.686,2.574 7.93977,-6.65105 9.25077,-3.35605 0.336,0.846 1.13809,3.95893 1.41009,4.76493 0.621,-1.456 3.70488,4.61729 3.30388,2.71229 z"
   id="path2855-7"
   style="opacity:1;fill:#ed1c24;fill-opacity:1;fill-rule:evenodd;stroke:#bcbec0;stroke-width:2;stroke-linecap:round;stroke-linejoin:round;stroke-opacity:1;overflow:visible"
   sodipodi:nodetypes="ccccscccsccccccccccccccc" /><path
   d="m 147.15429,479.46727 c 14.89006,6.14991 29.78021,12.29987 44.67037,18.44982"
   id="path3099"
   style="fill:none;stroke:#000000;stroke-width:0.69769752px;stroke-linecap:butt;stroke-linejoin:miter;stroke-opacity:1"
   inkscape:connector-curvature="0" /><text
   x="22.532492"
   y="537.1673"
   id="text2879-1"
   xml:space="preserve"
   style="font-size:20px;font-style:normal;font-variant:normal;font-weight:normal;font-stretch:normal;fill:#000000;fill-opacity:1;stroke:none;overflow:visible;font-family:Baekmuk Dotum;-inkscape-font-specification:Baekmuk Dotum"><tspan
     x="22.532492"
     y="537.1673"
     id="tspan2881-8"
     style="font-size:20px">남포직할시</tspan></text>
<path
   inkscape:connector-curvature="0"
   d="m 150.04973,530.13815 c -1.62985,0 -3.25966,0 -4.88951,0 -5.54145,0 -11.08289,0 -16.62431,0 -1.30388,0 -2.60775,0 -3.91161,0 -0.32598,0 -0.65195,0 -0.97792,0 -0.32595,0 -0.9779,0.0293 -0.9779,0 0,-0.0292 0.65195,0 0.9779,0"
   id="path3101-5"
   style="fill:none;stroke:#000000;stroke-width:0.35602248px;stroke-linecap:butt;stroke-linejoin:miter;stroke-opacity:1;overflow:visible" /></svg>